<?xml version="1.0" encoding="UTF-8"?>
<svg width="300" height="300" viewBox="0 0 300 300" fill="none" xmlns="http://www.w3.org/2000/svg">
    <rect width="300" height="300" fill="#F3F4F6"/>
    <path d="M150 125C161.046 125 170 116.046 170 105C170 93.9543 161.046 85 150 85C138.954 85 130 93.9543 130 105C130 116.046 138.954 125 150 125Z" fill="#9CA3AF"/>
    <path d="M190 185C190 166.774 171.962 152 150 152C128.038 152 110 166.774 110 185C110 186.105 110.895 187 112 187H188C189.105 187 190 186.105 190 185Z" fill="#9CA3AF"/>
    <rect x="85" y="85" width="130" height="130" rx="4" stroke="#9CA3AF" stroke-width="2"/>
</svg> 